REM DIRINDEX 1\5,1\2\6,1\2\7,1\3\8,1\3\9,1\3\10,1\3\11,1\4\12,1\4\13,1\4\14
REM DIRNAME folder01,folder02,folder03,folder04,folder05,folder06,folder07,folder08,folder09,folder10,folder11,folder12,folder13,folder14
TITLE ""
FILE "4Q_h_069-084.mp3" MP3
  TRACK 01 AUDIO
    TITLE "5:cjc042_0209"
    INDEX 01 00:00:00
  TRACK 02 AUDIO
    TITLE "0:"
    INDEX 01 00:02:73
  TRACK 03 AUDIO
    TITLE "12:cjc042_0210"
    INDEX 01 00:03:47
  TRACK 04 AUDIO
    TITLE "0:"
    INDEX 01 00:05:57
  TRACK 05 AUDIO
    TITLE "13:cjc042_0211"
    INDEX 01 00:06:33
  TRACK 06 AUDIO
    TITLE "0:"
    INDEX 01 00:08:42
  TRACK 07 AUDIO
    TITLE "14:cjc042_0212"
    INDEX 01 00:09:24
  TRACK 08 AUDIO
    TITLE "0:"
    INDEX 01 00:11:23
  TRACK 09 AUDIO
    TITLE "12:cjc042_0213"
    INDEX 01 00:12:05
  TRACK 10 AUDIO
    TITLE "0:"
    INDEX 01 00:13:73
  TRACK 11 AUDIO
    TITLE "13:cjc042_0214"
    INDEX 01 00:14:51
  TRACK 12 AUDIO
    TITLE "0:"
    INDEX 01 00:16:42
  TRACK 13 AUDIO
    TITLE "14:cjc042_0215"
    INDEX 01 00:17:18
  TRACK 14 AUDIO
    TITLE "0:"
    INDEX 01 00:20:37
  TRACK 15 AUDIO
    TITLE "12:cjc042_0216"
    INDEX 01 00:21:15
  TRACK 16 AUDIO
    TITLE "0:"
    INDEX 01 00:23:24
  TRACK 17 AUDIO
    TITLE "13:cjc042_0217"
    INDEX 01 00:24:02
  TRACK 18 AUDIO
    TITLE "0:"
    INDEX 01 00:26:09
  TRACK 19 AUDIO
    TITLE "14:cjc042_0218"
    INDEX 01 00:26:67
  TRACK 20 AUDIO
    TITLE "0:"
    INDEX 01 00:28:47
  TRACK 21 AUDIO
    TITLE "12:cjc042_0219"
    INDEX 01 00:29:21
  TRACK 22 AUDIO
    TITLE "0:"
    INDEX 01 00:31:00
  TRACK 23 AUDIO
    TITLE "13:cjc042_0220"
    INDEX 01 00:31:49
  TRACK 24 AUDIO
    TITLE "0:"
    INDEX 01 00:33:28
  TRACK 25 AUDIO
    TITLE "14:cjc042_0221"
    INDEX 01 00:34:02
  TRACK 26 AUDIO
    TITLE "0:"
    INDEX 01 00:36:13
  TRACK 27 AUDIO
    TITLE "12:cjc042_0222"
    INDEX 01 00:36:68
  TRACK 28 AUDIO
    TITLE "0:"
    INDEX 01 00:38:71
  TRACK 29 AUDIO
    TITLE "13:cjc042_0223"
    INDEX 01 00:39:52
  TRACK 30 AUDIO
    TITLE "0:"
    INDEX 01 00:41:57
  TRACK 31 AUDIO
    TITLE "14:cjc042_0224"
    INDEX 01 00:42:33
  TRACK 32 AUDIO
    TITLE "0:"
    INDEX 01 00:44:50
  TRACK 33 AUDIO
    TITLE "12:cjc042_0225"
    INDEX 01 00:45:24
  TRACK 34 AUDIO
    TITLE "0:"
    INDEX 01 00:47:34
  TRACK 35 AUDIO
    TITLE "13:cjc042_0226"
    INDEX 01 00:48:18
  TRACK 36 AUDIO
    TITLE "0:"
    INDEX 01 00:50:29
  TRACK 37 AUDIO
    TITLE "14:cjc042_0227"
    INDEX 01 00:51:11
  TRACK 38 AUDIO
    TITLE "0:"
    INDEX 01 00:53:04
  TRACK 39 AUDIO
    TITLE "12:cjc042_0228"
    INDEX 01 00:53:58
  TRACK 40 AUDIO
    TITLE "0:"
    INDEX 01 00:56:33
  TRACK 41 AUDIO
    TITLE "13:cjc042_0229"
    INDEX 01 00:57:03
  TRACK 42 AUDIO
    TITLE "0:"
    INDEX 01 00:59:55
  TRACK 43 AUDIO
    TITLE "14:cjc042_0230"
    INDEX 01 01:00:27
  TRACK 44 AUDIO
    TITLE "0:"
    INDEX 01 01:03:00
  TRACK 45 AUDIO
    TITLE "12:cjc042_0231"
    INDEX 01 01:03:43
  TRACK 46 AUDIO
    TITLE "0:"
    INDEX 01 01:05:26
  TRACK 47 AUDIO
    TITLE "13:cjc042_0232"
    INDEX 01 01:06:04
  TRACK 48 AUDIO
    TITLE "0:"
    INDEX 01 01:07:63
  TRACK 49 AUDIO
    TITLE "14:cjc042_0233"
    INDEX 01 01:08:42
  TRACK 50 AUDIO
    TITLE "0:"
    INDEX 01 01:10:45
  TRACK 51 AUDIO
    TITLE "12:cjc042_0234"
    INDEX 01 01:11:21
  TRACK 52 AUDIO
    TITLE "0:"
    INDEX 01 01:13:04
  TRACK 53 AUDIO
    TITLE "13:cjc042_0235"
    INDEX 01 01:13:57
  TRACK 54 AUDIO
    TITLE "0:"
    INDEX 01 01:15:40
  TRACK 55 AUDIO
    TITLE "14:cjc042_0236"
    INDEX 01 01:16:20
  TRACK 56 AUDIO
    TITLE "0:"
    INDEX 01 01:18:45
  TRACK 57 AUDIO
    TITLE "12:cjc042_0237"
    INDEX 01 01:19:17
  TRACK 58 AUDIO
    TITLE "0:"
    INDEX 01 01:21:14
  TRACK 59 AUDIO
    TITLE "13:cjc042_0238"
    INDEX 01 01:21:65
  TRACK 60 AUDIO
    TITLE "0:"
    INDEX 01 01:23:62
  TRACK 61 AUDIO
    TITLE "14:cjc042_0239"
    INDEX 01 01:24:39
  TRACK 62 AUDIO
    TITLE "0:"
    INDEX 01 01:26:50
  TRACK 63 AUDIO
    TITLE "12:cjc042_0240"
    INDEX 01 01:27:26
  TRACK 64 AUDIO
    TITLE "0:"
    INDEX 01 01:30:73
  TRACK 65 AUDIO
    TITLE "13:cjc042_0241"
    INDEX 01 01:31:51
  TRACK 66 AUDIO
    TITLE "0:"
    INDEX 01 01:35:22
  TRACK 67 AUDIO
    TITLE "14:cjc042_0242"
    INDEX 01 01:36:00
  TRACK 68 AUDIO
    TITLE "0:"
    INDEX 01 01:39:45
  TRACK 69 AUDIO
    TITLE "12:cjc042_0243"
    INDEX 01 01:40:13
  TRACK 70 AUDIO
    TITLE "0:"
    INDEX 01 01:42:57
  TRACK 71 AUDIO
    TITLE "13:cjc042_0244"
    INDEX 01 01:43:29
  TRACK 72 AUDIO
    TITLE "0:"
    INDEX 01 01:45:71
  TRACK 73 AUDIO
    TITLE "14:cjc042_0245"
    INDEX 01 01:46:47
  TRACK 74 AUDIO
    TITLE "0:"
    INDEX 01 01:49:02
  TRACK 75 AUDIO
    TITLE "12:cjc042_0246"
    INDEX 01 01:49:63
  TRACK 76 AUDIO
    TITLE "0:"
    INDEX 01 01:52:00
  TRACK 77 AUDIO
    TITLE "13:cjc042_0247"
    INDEX 01 01:52:48
  TRACK 78 AUDIO
    TITLE "0:"
    INDEX 01 01:54:60
  TRACK 79 AUDIO
    TITLE "14:cjc042_0248"
    INDEX 01 01:55:34
  TRACK 80 AUDIO
    TITLE "0:"
    INDEX 01 01:58:15
  TRACK 81 AUDIO
    TITLE "12:cjc042_0249"
    INDEX 01 01:58:62
  TRACK 82 AUDIO
    TITLE "0:"
    INDEX 01 02:01:31
  TRACK 83 AUDIO
    TITLE "13:cjc042_0250"
    INDEX 01 02:02:05
  TRACK 84 AUDIO
    TITLE "0:"
    INDEX 01 02:04:49
  TRACK 85 AUDIO
    TITLE "14:cjc042_0251"
    INDEX 01 02:05:25
  TRACK 86 AUDIO
    TITLE "0:"
    INDEX 01 02:08:21
  TRACK 87 AUDIO
    TITLE "12:cjc042_0252"
    INDEX 01 02:08:68
  TRACK 88 AUDIO
    TITLE "0:"
    INDEX 01 02:11:33
  TRACK 89 AUDIO
    TITLE "13:cjc042_0253"
    INDEX 01 02:12:11
  TRACK 90 AUDIO
    TITLE "0:"
    INDEX 01 02:14:51
  TRACK 91 AUDIO
    TITLE "14:cjc042_0254"
    INDEX 01 02:15:29
  TRACK 92 AUDIO
    TITLE "0:"
    INDEX 01 02:18:31
  TRACK 93 AUDIO
    TITLE "12:cjc042_0255"
    INDEX 01 02:19:11
  TRACK 94 AUDIO
    TITLE "0:"
    INDEX 01 02:21:14
  TRACK 95 AUDIO
    TITLE "13:cjc042_0256"
    INDEX 01 02:21:67
  TRACK 96 AUDIO
    TITLE "0:"
    INDEX 01 02:23:66
  TRACK 97 AUDIO
    TITLE "14:cjc042_0257"
    INDEX 01 02:24:47
  TRACK 98 AUDIO
    TITLE "0:"
    INDEX 01 02:26:60
